<mxfile host="app.diagrams.net" agent="Mozilla/5.0 (Macintosh; Intel Mac OS X 10_15_7) AppleWebKit/537.36 (KHTML, like Gecko) Chrome/132.0.0.0 Safari/537.36" version="26.0.10">
  <diagram name="as-to-be" id="-FQbQIRzEgXYEJ3rUFKh">
    <mxGraphModel dx="3028" dy="1888" grid="0" gridSize="10" guides="1" tooltips="1" connect="1" arrows="1" fold="1" page="0" pageScale="1" pageWidth="827" pageHeight="1169" math="0" shadow="0">
      <root>
        <mxCell id="0" />
        <mxCell id="1" parent="0" />
        <mxCell id="EFlYSVGT6i4VKlR51mrI-91" value="&lt;div style=&quot;font-size: 1px&quot;&gt;&lt;font style=&quot;font-size: 22.58px; font-family: Arial; color: rgb(0, 0, 0); direction: ltr; letter-spacing: 0px; line-height: 120%; opacity: 1;&quot;&gt;&lt;br&gt;&lt;/font&gt;&lt;/div&gt;" style="verticalAlign=middle;align=center;overflow=width;vsdxID=5;fillColor=#e3ebff;gradientColor=none;shape=stencil(vVNBDsIgEHwNRwxCjHqu+g9iaUtEaBa09fdSwdpi9dBDb8vOwOwsGcQyW/FaIEqsA3MRjcxdhdgBUSp1JUA6XyF2RCwrDIgSzE3n4VzzjtlVV3PvXmjDPdLdoOQRTrvtavNqnAKXw9mDELkBIhDJaxrJZIy/YRLfbjFvpcVgHHfS6JGu4lAK7GVwoXg5gmwjRP3VjoMpqQcm9tPKs0z0Y6crWcBHqt0PN8tJspXFfmNKdpaBH8tYwML/VPjiE6dCKhXSOMTT+PlWiC47PgE=);strokeColor=none;spacingTop=-3;spacingBottom=-3;spacingLeft=-3;spacingRight=-3;points=[];labelBackgroundColor=none;rounded=0;html=1;whiteSpace=wrap;" parent="1" vertex="1">
          <mxGeometry x="930" y="500" width="391" height="430" as="geometry" />
        </mxCell>
        <mxCell id="EFlYSVGT6i4VKlR51mrI-92" style="vsdxID=5;fillColor=none;gradientColor=none;strokeColor=none;spacingTop=-3;spacingBottom=-3;spacingLeft=-3;spacingRight=-3;points=[];labelBackgroundColor=none;rounded=0;html=1;whiteSpace=wrap;" parent="1" vertex="1">
          <mxGeometry x="960" y="536" width="333" height="130" as="geometry" />
        </mxCell>
        <mxCell id="EFlYSVGT6i4VKlR51mrI-93" style="vsdxID=6;fillColor=none;gradientColor=none;shape=stencil(vVNdD4IgFP01PMpIms1ns//BEpVF4K6U9u/DoFJxPdjm2/04cO65cBDN2po1HMWkNaAvvBOFqRE9ojgWquYgjI0QzRHNSg28An1ThcsbNiCH6Krvww29O0eGEzF5uCwleP8qnByWwdk2wWMpTg8ODm88TlwhQHjAjniCPmK9aCPQhhmh1YRcMqh4ZLmiUrJq0mo7zpug7KeTQo2UpAkmdJF8pZjP7PPlbCAm4PazrZQS7mazZwm+xF9vsryVDWT89okNvgYrhZTOn+P+3JC25MxM8yc=);strokeColor=#5282ff;spacingTop=-3;spacingBottom=-3;spacingLeft=-3;spacingRight=-3;points=[];labelBackgroundColor=none;rounded=0;html=1;whiteSpace=wrap;" parent="EFlYSVGT6i4VKlR51mrI-92" vertex="1">
          <mxGeometry width="333.00000000000006" height="129.99999999999997" as="geometry" />
        </mxCell>
        <mxCell id="EFlYSVGT6i4VKlR51mrI-94" value="" style="shape=image;verticalLabelPosition=bottom;verticalAlign=top;imageAspect=0;aspect=fixed;image=data:image/svg+xml,PHN2ZyB4bWxucz0iaHR0cDovL3d3dy53My5vcmcvMjAwMC9zdmciIHdpZHRoPSIzMiIgaGVpZ2h0PSIzMiIgdmlld0JveD0iMCAwIDMyIDMyIiBmaWxsPSJub25lIj4mI3hhOzxwYXRoIGQ9Ik0wIDE2QzAgNy4xNjM0NCA3LjE2MzQ0IDAgMTYgMFYwQzI0LjgzNjYgMCAzMiA3LjE2MzQ0IDMyIDE2VjE2QzMyIDI0LjgzNjYgMjQuODM2NiAzMiAxNiAzMlYzMkM3LjE2MzQ0IDMyIDAgMjQuODM2NiAwIDE2VjE2WiIgZmlsbD0iIzUyODJGRiIvPiYjeGE7PHBhdGggZD0iTTExLjk5NSAyNEw3LjAwMDk4IDE3LjczOEw4Ljc4MTk4IDkuOTI3TDE2IDYuNDUzTDIzLjIxOCA5LjkyOEwyNC45OTkgMTcuNzM5TDIwLjAwNSAyNEgxMS45OTVaTTIwIDEzLjE5NkwxNS45OTkgMTAuODk5TDEyIDEzLjE5NlYxOC4xTDE2IDIwLjQwMUwyMCAxOC4xVjEzLjE5NlpNMTguNzggMTMuODk2SDE4Ljc4N0wxNiAxNS40OTlMMTMuMjE0IDEzLjg5NUgxMy4yMTlMMTUuOTk5IDEyLjI5OUwxOC43OCAxMy44OTZaIiBmaWxsPSJ3aGl0ZSIvPiYjeGE7PC9zdmc+;" parent="EFlYSVGT6i4VKlR51mrI-92" vertex="1">
          <mxGeometry x="33" y="83.85000000000002" width="32" height="32" as="geometry" />
        </mxCell>
        <mxCell id="EFlYSVGT6i4VKlR51mrI-95" style="vsdxID=5;fillColor=none;gradientColor=none;shape=stencil(vVPLEoIgFP0aljgEVuPa6j+YRGUica6U9vdhUKk4LWzG3X0cOPdcOIilTclrgShpDOiLaGVmSsQOiFJZlQKksRFiR8TSXIMoQN+qzOU175F9dNX3/obOnSP9CUoeLktIFL8KJ4flcLZN8NhtRJiDwxsf7VwhQHjAhniCDvNONhi04UbqakSuOBQCWy6cK16MWk0rRB2U/XRKVgMlSRwl+1nyhWI+s0+Xs4KYgNvPtlBKuJvVniX4En+9yfxWVpDx2yc2+Bosl0o5fw77U0PakjMzOz4B);strokeColor=#ff5958;spacingTop=-3;spacingBottom=-3;spacingLeft=-3;spacingRight=-3;points=[];labelBackgroundColor=none;rounded=0;html=1;whiteSpace=wrap;" parent="EFlYSVGT6i4VKlR51mrI-92" vertex="1">
          <mxGeometry x="173" y="13" width="142" height="104" as="geometry" />
        </mxCell>
        <mxCell id="EFlYSVGT6i4VKlR51mrI-96" value="" style="shape=image;verticalLabelPosition=bottom;verticalAlign=top;imageAspect=0;aspect=fixed;image=data:image/svg+xml,PHN2ZyB4bWxucz0iaHR0cDovL3d3dy53My5vcmcvMjAwMC9zdmciIHdpZHRoPSIzMiIgaGVpZ2h0PSIzMiIgdmlld0JveD0iMCAwIDMyIDMyIiBmaWxsPSJub25lIj4mI3hhOzxwYXRoIGQ9Ik0wIDE2QzAgNy4xNjM0NCA3LjE2MzQ0IDAgMTYgMFYwQzI0LjgzNjYgMCAzMiA3LjE2MzQ0IDMyIDE2VjE2QzMyIDI0LjgzNjYgMjQuODM2NiAzMiAxNiAzMlYzMkM3LjE2MzQ0IDMyIDAgMjQuODM2NiAwIDE2VjE2WiIgZmlsbD0iIzUyODJGRiIvPiYjeGE7PHBhdGggZD0iTTExLjk5NSAyNEw3LjAwMDk4IDE3LjczOEw4Ljc4MTk4IDkuOTI3TDE2IDYuNDUzTDIzLjIxOCA5LjkyOEwyNC45OTkgMTcuNzM5TDIwLjAwNSAyNEgxMS45OTVaTTIwIDEzLjE5NkwxNS45OTkgMTAuODk5TDEyIDEzLjE5NlYxOC4xTDE2IDIwLjQwMUwyMCAxOC4xVjEzLjE5NlpNMTguNzggMTMuODk2SDE4Ljc4N0wxNiAxNS40OTlMMTMuMjE0IDEzLjg5NUgxMy4yMTlMMTUuOTk5IDEyLjI5OUwxOC43OCAxMy44OTZaIiBmaWxsPSJ3aGl0ZSIvPiYjeGE7PC9zdmc+;" parent="EFlYSVGT6i4VKlR51mrI-92" vertex="1">
          <mxGeometry x="228" y="19" width="32" height="32" as="geometry" />
        </mxCell>
        <mxCell id="EFlYSVGT6i4VKlR51mrI-97" value="&lt;span style=&quot;font-size: 23px;&quot;&gt;Kubernetes cluster (AZ2)&lt;/span&gt;" style="text;strokeColor=none;align=left;fillColor=none;html=1;verticalAlign=middle;whiteSpace=wrap;rounded=0;" parent="EFlYSVGT6i4VKlR51mrI-92" vertex="1">
          <mxGeometry x="17" y="15" width="143" height="44" as="geometry" />
        </mxCell>
        <mxCell id="EFlYSVGT6i4VKlR51mrI-98" value="&lt;font style=&quot;font-size: 25px;&quot;&gt;InsureTech&lt;br&gt;namespace&lt;/font&gt;" style="text;strokeColor=none;align=center;fillColor=none;html=1;verticalAlign=middle;whiteSpace=wrap;rounded=0;" parent="EFlYSVGT6i4VKlR51mrI-92" vertex="1">
          <mxGeometry x="177" y="59" width="134" height="50" as="geometry" />
        </mxCell>
        <mxCell id="EFlYSVGT6i4VKlR51mrI-99" style="edgeStyle=orthogonalEdgeStyle;rounded=0;orthogonalLoop=1;jettySize=auto;html=1;" parent="EFlYSVGT6i4VKlR51mrI-92" edge="1">
          <mxGeometry relative="1" as="geometry">
            <mxPoint x="243.51999999999998" y="117" as="sourcePoint" />
            <mxPoint x="243.51999999999998" y="197" as="targetPoint" />
          </mxGeometry>
        </mxCell>
        <mxCell id="EFlYSVGT6i4VKlR51mrI-100" value="TCP" style="edgeLabel;html=1;align=center;verticalAlign=middle;resizable=0;points=[];container=0;" parent="EFlYSVGT6i4VKlR51mrI-99" vertex="1" connectable="0">
          <mxGeometry x="-0.0566" y="2" relative="1" as="geometry">
            <mxPoint as="offset" />
          </mxGeometry>
        </mxCell>
        <mxCell id="EFlYSVGT6i4VKlR51mrI-101" style="vsdxID=5;fillColor=none;gradientColor=none;strokeColor=none;spacingTop=-3;spacingBottom=-3;spacingLeft=-3;spacingRight=-3;points=[];labelBackgroundColor=none;rounded=0;html=1;whiteSpace=wrap;" parent="1" vertex="1">
          <mxGeometry x="960" y="717.86" width="333" height="130" as="geometry" />
        </mxCell>
        <mxCell id="EFlYSVGT6i4VKlR51mrI-102" style="vsdxID=6;fillColor=none;gradientColor=none;shape=stencil(vVNdD4IgFP01PMpIms1ns//BEpVF4K6U9u/DoFJxPdjm2/04cO65cBDN2po1HMWkNaAvvBOFqRE9ojgWquYgjI0QzRHNSg28An1ThcsbNiCH6Krvww29O0eGEzF5uCwleP8qnByWwdk2wWMpTg8ODm88TlwhQHjAjniCPmK9aCPQhhmh1YRcMqh4ZLmiUrJq0mo7zpug7KeTQo2UpAkmdJF8pZjP7PPlbCAm4PazrZQS7mazZwm+xF9vsryVDWT89okNvgYrhZTOn+P+3JC25MxM8yc=);strokeColor=#5282ff;spacingTop=-3;spacingBottom=-3;spacingLeft=-3;spacingRight=-3;points=[];labelBackgroundColor=none;rounded=0;html=1;whiteSpace=wrap;" parent="EFlYSVGT6i4VKlR51mrI-101" vertex="1">
          <mxGeometry width="333.00000000000006" height="129.99999999999997" as="geometry" />
        </mxCell>
        <mxCell id="EFlYSVGT6i4VKlR51mrI-103" style="vsdxID=5;fillColor=none;gradientColor=none;shape=stencil(vVPLEoIgFP0aljgEVuPa6j+YRGUica6U9vdhUKk4LWzG3X0cOPdcOIilTclrgShpDOiLaGVmSsQOiFJZlQKksRFiR8TSXIMoQN+qzOU175F9dNX3/obOnSP9CUoeLktIFL8KJ4flcLZN8NhtRJiDwxsf7VwhQHjAhniCDvNONhi04UbqakSuOBQCWy6cK16MWk0rRB2U/XRKVgMlSRwl+1nyhWI+s0+Xs4KYgNvPtlBKuJvVniX4En+9yfxWVpDx2yc2+Bosl0o5fw77U0PakjMzOz4B);strokeColor=#ff5958;spacingTop=-3;spacingBottom=-3;spacingLeft=-3;spacingRight=-3;points=[];labelBackgroundColor=none;rounded=0;html=1;whiteSpace=wrap;" parent="EFlYSVGT6i4VKlR51mrI-101" vertex="1">
          <mxGeometry x="173" y="13.75" width="142" height="104" as="geometry" />
        </mxCell>
        <mxCell id="EFlYSVGT6i4VKlR51mrI-104" value="" style="shape=image;verticalLabelPosition=bottom;verticalAlign=top;imageAspect=0;aspect=fixed;image=data:image/svg+xml,PHN2ZyB4bWxucz0iaHR0cDovL3d3dy53My5vcmcvMjAwMC9zdmciIHdpZHRoPSIzMiIgaGVpZ2h0PSIzMiIgdmlld0JveD0iMCAwIDMyIDMyIiBmaWxsPSJub25lIj4mI3hhOzxwYXRoIGQ9Ik0wIDE2QzAgNy4xNjM0NCA3LjE2MzQ0IDAgMTYgMFYwQzI0LjgzNjYgMCAzMiA3LjE2MzQ0IDMyIDE2VjE2QzMyIDI0LjgzNjYgMjQuODM2NiAzMiAxNiAzMlYzMkM3LjE2MzQ0IDMyIDAgMjQuODM2NiAwIDE2VjE2WiIgZmlsbD0iIzUyODJGRiIvPiYjeGE7PHBhdGggZD0iTTI0IDE1VjEzSDIyVjExQzIyIDEwLjQgMjEuNiAxMCAyMSAxMEgxOVY4SDE3VjEwSDE1VjhIMTNWMTBIMTFDMTAuNCAxMCAxMCAxMC40IDEwIDExVjEzSDhWMTVIMTBWMTdIOFYxOUgxMFYyMUMxMCAyMS42IDEwLjQgMjIgMTEgMjJIMTNWMjRIMTVWMjJIMTdWMjRIMTlWMjJIMjFDMjEuNiAyMiAyMiAyMS42IDIyIDIxVjE5SDI0VjE3SDIyVjE1SDI0Wk0xOSAxOUgxM1YxM0gxOVYxOVoiIGZpbGw9IndoaXRlIi8+JiN4YTs8L3N2Zz4=;" parent="EFlYSVGT6i4VKlR51mrI-101" vertex="1">
          <mxGeometry x="33" y="85.75" width="32" height="32" as="geometry" />
        </mxCell>
        <mxCell id="EFlYSVGT6i4VKlR51mrI-105" value="" style="shape=image;verticalLabelPosition=bottom;verticalAlign=top;imageAspect=0;aspect=fixed;image=data:image/svg+xml,PHN2ZyB4bWxucz0iaHR0cDovL3d3dy53My5vcmcvMjAwMC9zdmciIHdpZHRoPSIzMiIgaGVpZ2h0PSIzMiIgdmlld0JveD0iMCAwIDMyIDMyIiBmaWxsPSJub25lIj4mI3hhOzxwYXRoIGQ9Ik0wIDE2QzAgNy4xNjM0NCA3LjE2MzQ0IDAgMTYgMFYwQzI0LjgzNjYgMCAzMiA3LjE2MzQ0IDMyIDE2VjE2QzMyIDI0LjgzNjYgMjQuODM2NiAzMiAxNiAzMlYzMkM3LjE2MzQ0IDMyIDAgMjQuODM2NiAwIDE2VjE2WiIgZmlsbD0iIzUyODJGRiIvPiYjeGE7PHBhdGggZmlsbC1ydWxlPSJldmVub2RkIiBjbGlwLXJ1bGU9ImV2ZW5vZGQiIGQ9Ik0xMyA4SDE4QzIxLjMgOCAyNCAxMC43IDI0IDE0VjI0SDIwVjIwSDIyVjE5SDE4LjZDMTUuNSAxOSAxMyAxNi41IDEzIDEzLjRWOFpNMTkgMTdIMjFWMTVIMTlWMTdaTTEyIDkuMDk5OThWMTMuNEMxMiAxNi44IDE0LjYgMTkuNyAxOCAyMC4xVjIwLjZDMTggMjIgMTUuOCAyMy4xIDEzIDIzLjFDMTAuMiAyMy4xIDggMjIgOCAyMC42VjExLjZDOCAxMC4zIDkuNyA5LjI5OTk4IDEyIDkuMDk5OThaIiBmaWxsPSJ3aGl0ZSIvPiYjeGE7PC9zdmc+;" parent="EFlYSVGT6i4VKlR51mrI-101" vertex="1">
          <mxGeometry x="228" y="18.139999999999986" width="32" height="32" as="geometry" />
        </mxCell>
        <mxCell id="EFlYSVGT6i4VKlR51mrI-106" value="&lt;span style=&quot;font-size: 23px;&quot;&gt;VM 1&lt;/span&gt;" style="text;strokeColor=none;align=left;fillColor=none;html=1;verticalAlign=middle;whiteSpace=wrap;rounded=0;" parent="EFlYSVGT6i4VKlR51mrI-101" vertex="1">
          <mxGeometry x="23" y="13" width="57" height="33.89" as="geometry" />
        </mxCell>
        <mxCell id="EFlYSVGT6i4VKlR51mrI-107" value="&lt;span style=&quot;font-size: 25px;&quot;&gt;PostgreSQL&lt;br&gt;(replica)&lt;/span&gt;" style="text;strokeColor=none;align=center;fillColor=none;html=1;verticalAlign=middle;whiteSpace=wrap;rounded=0;" parent="EFlYSVGT6i4VKlR51mrI-101" vertex="1">
          <mxGeometry x="177" y="58.139999999999986" width="134" height="50" as="geometry" />
        </mxCell>
        <mxCell id="EFlYSVGT6i4VKlR51mrI-108" value="&lt;font style=&quot;font-size: 23px;&quot;&gt;Зона доступности 2&lt;/font&gt;" style="text;strokeColor=none;align=center;fillColor=none;html=1;verticalAlign=middle;whiteSpace=wrap;rounded=0;" parent="1" vertex="1">
          <mxGeometry x="995.5" y="896" width="260" height="30" as="geometry" />
        </mxCell>
        <mxCell id="EFlYSVGT6i4VKlR51mrI-1" value="&lt;div style=&quot;font-size: 1px&quot;&gt;&lt;font style=&quot;font-size: 22.58px; font-family: Arial; color: rgb(0, 0, 0); direction: ltr; letter-spacing: 0px; line-height: 120%; opacity: 1;&quot;&gt;&lt;br&gt;&lt;/font&gt;&lt;/div&gt;" style="verticalAlign=middle;align=center;overflow=width;vsdxID=5;fillColor=#e3ebff;gradientColor=none;shape=stencil(vVNBDsIgEHwNRwxCjHqu+g9iaUtEaBa09fdSwdpi9dBDb8vOwOwsGcQyW/FaIEqsA3MRjcxdhdgBUSp1JUA6XyF2RCwrDIgSzE3n4VzzjtlVV3PvXmjDPdLdoOQRTrvtavNqnAKXw9mDELkBIhDJaxrJZIy/YRLfbjFvpcVgHHfS6JGu4lAK7GVwoXg5gmwjRP3VjoMpqQcm9tPKs0z0Y6crWcBHqt0PN8tJspXFfmNKdpaBH8tYwML/VPjiE6dCKhXSOMTT+PlWiC47PgE=);strokeColor=none;spacingTop=-3;spacingBottom=-3;spacingLeft=-3;spacingRight=-3;points=[];labelBackgroundColor=none;rounded=0;html=1;whiteSpace=wrap;" parent="1" vertex="1">
          <mxGeometry x="-200" y="500" width="391" height="430" as="geometry" />
        </mxCell>
        <mxCell id="EFlYSVGT6i4VKlR51mrI-2" style="vsdxID=5;fillColor=none;gradientColor=none;strokeColor=none;spacingTop=-3;spacingBottom=-3;spacingLeft=-3;spacingRight=-3;points=[];labelBackgroundColor=none;rounded=0;html=1;whiteSpace=wrap;" parent="1" vertex="1">
          <mxGeometry x="-170" y="536" width="333" height="130" as="geometry" />
        </mxCell>
        <mxCell id="EFlYSVGT6i4VKlR51mrI-3" style="vsdxID=6;fillColor=none;gradientColor=none;shape=stencil(vVNdD4IgFP01PMpIms1ns//BEpVF4K6U9u/DoFJxPdjm2/04cO65cBDN2po1HMWkNaAvvBOFqRE9ojgWquYgjI0QzRHNSg28An1ThcsbNiCH6Krvww29O0eGEzF5uCwleP8qnByWwdk2wWMpTg8ODm88TlwhQHjAjniCPmK9aCPQhhmh1YRcMqh4ZLmiUrJq0mo7zpug7KeTQo2UpAkmdJF8pZjP7PPlbCAm4PazrZQS7mazZwm+xF9vsryVDWT89okNvgYrhZTOn+P+3JC25MxM8yc=);strokeColor=#5282ff;spacingTop=-3;spacingBottom=-3;spacingLeft=-3;spacingRight=-3;points=[];labelBackgroundColor=none;rounded=0;html=1;whiteSpace=wrap;" parent="EFlYSVGT6i4VKlR51mrI-2" vertex="1">
          <mxGeometry width="333.00000000000006" height="129.99999999999997" as="geometry" />
        </mxCell>
        <mxCell id="EFlYSVGT6i4VKlR51mrI-23" value="" style="shape=image;verticalLabelPosition=bottom;verticalAlign=top;imageAspect=0;aspect=fixed;image=data:image/svg+xml,PHN2ZyB4bWxucz0iaHR0cDovL3d3dy53My5vcmcvMjAwMC9zdmciIHdpZHRoPSIzMiIgaGVpZ2h0PSIzMiIgdmlld0JveD0iMCAwIDMyIDMyIiBmaWxsPSJub25lIj4mI3hhOzxwYXRoIGQ9Ik0wIDE2QzAgNy4xNjM0NCA3LjE2MzQ0IDAgMTYgMFYwQzI0LjgzNjYgMCAzMiA3LjE2MzQ0IDMyIDE2VjE2QzMyIDI0LjgzNjYgMjQuODM2NiAzMiAxNiAzMlYzMkM3LjE2MzQ0IDMyIDAgMjQuODM2NiAwIDE2VjE2WiIgZmlsbD0iIzUyODJGRiIvPiYjeGE7PHBhdGggZD0iTTExLjk5NSAyNEw3LjAwMDk4IDE3LjczOEw4Ljc4MTk4IDkuOTI3TDE2IDYuNDUzTDIzLjIxOCA5LjkyOEwyNC45OTkgMTcuNzM5TDIwLjAwNSAyNEgxMS45OTVaTTIwIDEzLjE5NkwxNS45OTkgMTAuODk5TDEyIDEzLjE5NlYxOC4xTDE2IDIwLjQwMUwyMCAxOC4xVjEzLjE5NlpNMTguNzggMTMuODk2SDE4Ljc4N0wxNiAxNS40OTlMMTMuMjE0IDEzLjg5NUgxMy4yMTlMMTUuOTk5IDEyLjI5OUwxOC43OCAxMy44OTZaIiBmaWxsPSJ3aGl0ZSIvPiYjeGE7PC9zdmc+;" parent="EFlYSVGT6i4VKlR51mrI-2" vertex="1">
          <mxGeometry x="33" y="83.85000000000002" width="32" height="32" as="geometry" />
        </mxCell>
        <mxCell id="EFlYSVGT6i4VKlR51mrI-24" style="vsdxID=5;fillColor=none;gradientColor=none;shape=stencil(vVPLEoIgFP0aljgEVuPa6j+YRGUica6U9vdhUKk4LWzG3X0cOPdcOIilTclrgShpDOiLaGVmSsQOiFJZlQKksRFiR8TSXIMoQN+qzOU175F9dNX3/obOnSP9CUoeLktIFL8KJ4flcLZN8NhtRJiDwxsf7VwhQHjAhniCDvNONhi04UbqakSuOBQCWy6cK16MWk0rRB2U/XRKVgMlSRwl+1nyhWI+s0+Xs4KYgNvPtlBKuJvVniX4En+9yfxWVpDx2yc2+Bosl0o5fw77U0PakjMzOz4B);strokeColor=#ff5958;spacingTop=-3;spacingBottom=-3;spacingLeft=-3;spacingRight=-3;points=[];labelBackgroundColor=none;rounded=0;html=1;whiteSpace=wrap;" parent="EFlYSVGT6i4VKlR51mrI-2" vertex="1">
          <mxGeometry x="173" y="13" width="142" height="104" as="geometry" />
        </mxCell>
        <mxCell id="EFlYSVGT6i4VKlR51mrI-30" value="" style="shape=image;verticalLabelPosition=bottom;verticalAlign=top;imageAspect=0;aspect=fixed;image=data:image/svg+xml,PHN2ZyB4bWxucz0iaHR0cDovL3d3dy53My5vcmcvMjAwMC9zdmciIHdpZHRoPSIzMiIgaGVpZ2h0PSIzMiIgdmlld0JveD0iMCAwIDMyIDMyIiBmaWxsPSJub25lIj4mI3hhOzxwYXRoIGQ9Ik0wIDE2QzAgNy4xNjM0NCA3LjE2MzQ0IDAgMTYgMFYwQzI0LjgzNjYgMCAzMiA3LjE2MzQ0IDMyIDE2VjE2QzMyIDI0LjgzNjYgMjQuODM2NiAzMiAxNiAzMlYzMkM3LjE2MzQ0IDMyIDAgMjQuODM2NiAwIDE2VjE2WiIgZmlsbD0iIzUyODJGRiIvPiYjeGE7PHBhdGggZD0iTTExLjk5NSAyNEw3LjAwMDk4IDE3LjczOEw4Ljc4MTk4IDkuOTI3TDE2IDYuNDUzTDIzLjIxOCA5LjkyOEwyNC45OTkgMTcuNzM5TDIwLjAwNSAyNEgxMS45OTVaTTIwIDEzLjE5NkwxNS45OTkgMTAuODk5TDEyIDEzLjE5NlYxOC4xTDE2IDIwLjQwMUwyMCAxOC4xVjEzLjE5NlpNMTguNzggMTMuODk2SDE4Ljc4N0wxNiAxNS40OTlMMTMuMjE0IDEzLjg5NUgxMy4yMTlMMTUuOTk5IDEyLjI5OUwxOC43OCAxMy44OTZaIiBmaWxsPSJ3aGl0ZSIvPiYjeGE7PC9zdmc+;" parent="EFlYSVGT6i4VKlR51mrI-2" vertex="1">
          <mxGeometry x="228" y="19" width="32" height="32" as="geometry" />
        </mxCell>
        <mxCell id="EFlYSVGT6i4VKlR51mrI-31" value="&lt;span style=&quot;font-size: 23px;&quot;&gt;Kubernetes cluster (AZ1)&lt;/span&gt;" style="text;strokeColor=none;align=left;fillColor=none;html=1;verticalAlign=middle;whiteSpace=wrap;rounded=0;" parent="EFlYSVGT6i4VKlR51mrI-2" vertex="1">
          <mxGeometry x="17" y="15" width="143" height="44" as="geometry" />
        </mxCell>
        <mxCell id="EFlYSVGT6i4VKlR51mrI-33" value="&lt;font style=&quot;font-size: 25px;&quot;&gt;InsureTech&lt;br&gt;namespace&lt;/font&gt;" style="text;strokeColor=none;align=center;fillColor=none;html=1;verticalAlign=middle;whiteSpace=wrap;rounded=0;" parent="EFlYSVGT6i4VKlR51mrI-2" vertex="1">
          <mxGeometry x="177" y="59" width="134" height="50" as="geometry" />
        </mxCell>
        <mxCell id="EFlYSVGT6i4VKlR51mrI-35" style="edgeStyle=orthogonalEdgeStyle;rounded=0;orthogonalLoop=1;jettySize=auto;html=1;" parent="EFlYSVGT6i4VKlR51mrI-2" edge="1">
          <mxGeometry relative="1" as="geometry">
            <mxPoint x="243.51999999999998" y="117" as="sourcePoint" />
            <mxPoint x="243.51999999999998" y="197" as="targetPoint" />
          </mxGeometry>
        </mxCell>
        <mxCell id="EFlYSVGT6i4VKlR51mrI-36" value="TCP" style="edgeLabel;html=1;align=center;verticalAlign=middle;resizable=0;points=[];container=0;" parent="EFlYSVGT6i4VKlR51mrI-35" vertex="1" connectable="0">
          <mxGeometry x="-0.0566" y="2" relative="1" as="geometry">
            <mxPoint as="offset" />
          </mxGeometry>
        </mxCell>
        <mxCell id="z50hnRKx-UgiLCB_eJ8v-7" value="&lt;div style=&quot;font-size: 1px&quot;&gt;&lt;font style=&quot;font-size: 22.58px; font-family: Arial; color: rgb(0, 0, 0); direction: ltr; letter-spacing: 0px; line-height: 120%; opacity: 1;&quot;&gt;&lt;br&gt;&lt;/font&gt;&lt;/div&gt;" style="verticalAlign=bottom;align=center;overflow=width;vsdxID=5;fillColor=#e3ebff;gradientColor=none;shape=stencil(vVNBDsIgEHwNRwxCjHqu+g9iaUtEaBa09fdSwdpi9dBDb8vOwOwsGcQyW/FaIEqsA3MRjcxdhdgBUSp1JUA6XyF2RCwrDIgSzE3n4VzzjtlVV3PvXmjDPdLdoOQRTrvtavNqnAKXw9mDELkBIhDJaxrJZIy/YRLfbjFvpcVgHHfS6JGu4lAK7GVwoXg5gmwjRP3VjoMpqQcm9tPKs0z0Y6crWcBHqt0PN8tJspXFfmNKdpaBH8tYwML/VPjiE6dCKhXSOMTT+PlWiC47PgE=);strokeColor=none;spacingTop=-3;spacingBottom=-3;spacingLeft=-3;spacingRight=-3;points=[];labelBackgroundColor=none;rounded=0;html=1;whiteSpace=wrap;container=0;" parent="1" vertex="1">
          <mxGeometry x="480" y="180" width="160" height="84" as="geometry" />
        </mxCell>
        <mxCell id="Zcm5tQwCMB2YyKj0-IPv-38" value="" style="aspect=fixed;sketch=0;html=1;dashed=0;whitespace=wrap;verticalLabelPosition=bottom;verticalAlign=top;fillColor=#2875E2;strokeColor=#ffffff;points=[[0.005,0.63,0],[0.1,0.2,0],[0.9,0.2,0],[0.5,0,0],[0.995,0.63,0],[0.72,0.99,0],[0.5,1,0],[0.28,0.99,0]];shape=mxgraph.kubernetes.icon2;prIcon=group;container=0;" parent="1" vertex="1">
          <mxGeometry x="568" y="-130" width="50" height="48" as="geometry" />
        </mxCell>
        <mxCell id="Zcm5tQwCMB2YyKj0-IPv-39" style="vsdxID=5;fillColor=none;gradientColor=none;shape=stencil(vVPLEoIgFP0aljgEVuPa6j+YRGUica6U9vdhUKk4LWzG3X0cOPdcOIilTclrgShpDOiLaGVmSsQOiFJZlQKksRFiR8TSXIMoQN+qzOU175F9dNX3/obOnSP9CUoeLktIFL8KJ4flcLZN8NhtRJiDwxsf7VwhQHjAhniCDvNONhi04UbqakSuOBQCWy6cK16MWk0rRB2U/XRKVgMlSRwl+1nyhWI+s0+Xs4KYgNvPtlBKuJvVniX4En+9yfxWVpDx2yc2+Bosl0o5fw77U0PakjMzOz4B);strokeColor=#ff5958;spacingTop=-3;spacingBottom=-3;spacingLeft=-3;spacingRight=-3;points=[];labelBackgroundColor=none;rounded=0;html=1;whiteSpace=wrap;container=0;" parent="1" vertex="1">
          <mxGeometry x="484" y="-140" width="152" height="130" as="geometry" />
        </mxCell>
        <mxCell id="Zcm5tQwCMB2YyKj0-IPv-40" value="&lt;div style=&quot;font-size: 1px&quot;&gt;&lt;font style=&quot;font-size:22.58px;font-family:Arial;color:#000000;direction:ltr;letter-spacing:0px;line-height:120%;opacity:1&quot;&gt;Браузер&amp;nbsp;&lt;/font&gt;&lt;/div&gt;&lt;div style=&quot;font-size: 1px&quot;&gt;&lt;font style=&quot;font-size:22.58px;font-family:Arial;color:#000000;direction:ltr;letter-spacing:0px;line-height:120%;opacity:1&quot;&gt;пользователя&lt;/font&gt;&lt;/div&gt;" style="verticalAlign=bottom;align=center;overflow=width;vsdxID=6;fillColor=none;gradientColor=none;strokeColor=none;spacingTop=-3;spacingBottom=-3;spacingLeft=-3;spacingRight=-3;points=[];labelBackgroundColor=none;rounded=0;html=1;whiteSpace=wrap;container=0;" parent="1" vertex="1">
          <mxGeometry x="484" y="-73" width="152" height="53" as="geometry" />
        </mxCell>
        <mxCell id="z50hnRKx-UgiLCB_eJ8v-6" value="" style="shape=image;verticalLabelPosition=bottom;labelBackgroundColor=#ffffff;verticalAlign=top;aspect=fixed;imageAspect=0;image=data:image/svg+xml,PHN2ZyB4bWxucz0iaHR0cDovL3d3dy53My5vcmcvMjAwMC9zdmciIHdpZHRoPSIzMiIgaGVpZ2h0PSIzMiIgdmlld0JveD0iMCAwIDMyIDMyIiBmaWxsPSJub25lIj4mI3hhOzxwYXRoIGQ9Ik0xNiAzMkMyNC44MzY2IDMyIDMyIDI0LjgzNjYgMzIgMTZDMzIgNy4xNjM0NCAyNC44MzY2IDAgMTYgMEM3LjE2MzQ0IDAgMCA3LjE2MzQ0IDAgMTZDMCAyNC44MzY2IDcuMTYzNDQgMzIgMTYgMzJaIiBmaWxsPSIjNTI4MkZGIi8+JiN4YTs8cGF0aCBmaWxsLXJ1bGU9ImV2ZW5vZGQiIGNsaXAtcnVsZT0iZXZlbm9kZCIgZD0iTTIzLjI0NjEgMjRWMjAuMDU1N0wyMS44Nzg3IDIxLjE0NjVMMTkuMjIyOSAxNy43NTU5QzE5LjU5MTUgMTcuMjU3NiAxOS44MDk0IDE2LjY0MSAxOS44MDk0IDE1Ljk3MzZDMTkuODA5NCAxNS44NDY0IDE5LjgwMTUgMTUuNzIxMSAxOS43ODYyIDE1LjU5ODFMMjEuMzgxOCAxNC45NzkxTDIyLjAxMzIgMTYuNjI0MUwyMy45OTk1IDEzLjIzMDVMMjAuMjUyNiAxMi4wMzc2TDIwLjg4IDEzLjY3MjFMMTkuMjkxNyAxNC4yODgzQzE4Ljc1MTkgMTMuNDk0OCAxNy44NDE1IDEyLjk3MzYgMTYuODA5NCAxMi45NzM2QzE2Ljc2NzggMTIuOTczNiAxNi43MjY0IDEyLjk3NDQgMTYuNjg1MiAxMi45NzYxTDE1LjkzNyAxMC43MDgyTDE3LjYyMDUgMTAuMTYxMkwxNC4zMzU0IDhMMTIuOTQ4MSAxMS42NzkzTDE0LjYwNTUgMTEuMTQwOEwxNS4zMzc1IDEzLjM1ODlDMTQuNjI3IDEzLjc1OTcgMTQuMDk2MyAxNC40NDE4IDEzLjg5NjMgMTUuMjUzOUwxMy44OTY2IDE1LjI1MjhMMTEuODcxMiAxNS4yNTI0QzExLjU4NzQgMTQuNDk0MSAxMC44NTYyIDEzLjk1NDMgOS45OTg5IDEzLjk1NDNDOC44OTUyMSAxMy45NTQzIDguMDAwNDkgMTQuODQ5IDguMDAwNDkgMTUuOTUyN0M4LjAwMDQ5IDE3LjA1NjQgOC44OTUyMSAxNy45NTExIDkuOTk4OSAxNy45NTExQzEwLjg1NjQgMTcuOTUxMSAxMS41ODc4IDE3LjQxMSAxMS44NzE0IDE2LjY1MjRMMTMuODg2NiAxNi42NTI4QzE0LjA0MDcgMTcuMzE4OSAxNC40MTY2IDE3Ljg5OTcgMTQuOTMyMyAxOC4zMTM5TDE0LjkzMTQgMTguMzEzM0wxNC4wMjkyIDIwLjA4MTFMMTIuNDczNiAxOS4yODU5TDEzLjI2MzEgMjMuMTM4TDE2Ljg0OCAyMS41MjIxTDE1LjI3NTggMjAuNzE4NEwxNi4xOTggMTguOTExM0wxNi4xOTcgMTguOTExMUMxNi4zOTQ3IDE4Ljk1MjEgMTYuNTk5NiAxOC45NzM2IDE2LjgwOTQgMTguOTczNkMxNy4yOTE2IDE4Ljk3MzYgMTcuNzQ3MiAxOC44NTk4IDE4LjE1MDkgMTguNjU3N0wyMC43ODQyIDIyLjAxOTVMMTkuNDA1NSAyMy4xMTkzTDIzLjI0NjEgMjRaTTE2LjgwOTQgMTQuMzczNkMxNy42OTMxIDE0LjM3MzYgMTguNDA5NCAxNS4wODk5IDE4LjQwOTQgMTUuOTczNkMxOC40MDk0IDE2Ljg1NzMgMTcuNjkzMSAxNy41NzM2IDE2LjgwOTQgMTcuNTczNkMxNS45MjU4IDE3LjU3MzYgMTUuMjA5NCAxNi44NTczIDE1LjIwOTQgMTUuOTczNkMxNS4yMDk0IDE1LjA4OTkgMTUuOTI1OCAxNC4zNzM2IDE2LjgwOTQgMTQuMzczNloiIGZpbGw9IndoaXRlIi8+JiN4YTs8L3N2Zz4=;" parent="1" vertex="1">
          <mxGeometry x="544" y="186" width="32" height="32" as="geometry" />
        </mxCell>
        <mxCell id="z50hnRKx-UgiLCB_eJ8v-9" value="Global Load Balancer" style="text;strokeColor=none;align=center;fillColor=none;html=1;verticalAlign=middle;whiteSpace=wrap;rounded=0;" parent="1" vertex="1">
          <mxGeometry x="505.5" y="230" width="109" height="27" as="geometry" />
        </mxCell>
        <mxCell id="z50hnRKx-UgiLCB_eJ8v-13" style="edgeStyle=orthogonalEdgeStyle;rounded=0;orthogonalLoop=1;jettySize=auto;html=1;exitX=1.001;exitY=0.476;exitDx=0;exitDy=0;exitPerimeter=0;entryX=0.486;entryY=-0.002;entryDx=0;entryDy=0;entryPerimeter=0;" parent="1" source="z50hnRKx-UgiLCB_eJ8v-7" target="EFlYSVGT6i4VKlR51mrI-91" edge="1">
          <mxGeometry relative="1" as="geometry">
            <Array as="points">
              <mxPoint x="1120" y="220" />
            </Array>
            <mxPoint x="655" y="220" as="sourcePoint" />
            <mxPoint x="1120" y="480" as="targetPoint" />
          </mxGeometry>
        </mxCell>
        <mxCell id="EFlYSVGT6i4VKlR51mrI-9" style="vsdxID=5;fillColor=none;gradientColor=none;strokeColor=none;spacingTop=-3;spacingBottom=-3;spacingLeft=-3;spacingRight=-3;points=[];labelBackgroundColor=none;rounded=0;html=1;whiteSpace=wrap;" parent="1" vertex="1">
          <mxGeometry x="-170" y="717.86" width="333" height="130" as="geometry" />
        </mxCell>
        <mxCell id="EFlYSVGT6i4VKlR51mrI-10" style="vsdxID=6;fillColor=none;gradientColor=none;shape=stencil(vVNdD4IgFP01PMpIms1ns//BEpVF4K6U9u/DoFJxPdjm2/04cO65cBDN2po1HMWkNaAvvBOFqRE9ojgWquYgjI0QzRHNSg28An1ThcsbNiCH6Krvww29O0eGEzF5uCwleP8qnByWwdk2wWMpTg8ODm88TlwhQHjAjniCPmK9aCPQhhmh1YRcMqh4ZLmiUrJq0mo7zpug7KeTQo2UpAkmdJF8pZjP7PPlbCAm4PazrZQS7mazZwm+xF9vsryVDWT89okNvgYrhZTOn+P+3JC25MxM8yc=);strokeColor=#5282ff;spacingTop=-3;spacingBottom=-3;spacingLeft=-3;spacingRight=-3;points=[];labelBackgroundColor=none;rounded=0;html=1;whiteSpace=wrap;" parent="EFlYSVGT6i4VKlR51mrI-9" vertex="1">
          <mxGeometry width="333.00000000000006" height="129.99999999999997" as="geometry" />
        </mxCell>
        <mxCell id="EFlYSVGT6i4VKlR51mrI-26" style="vsdxID=5;fillColor=none;gradientColor=none;shape=stencil(vVPLEoIgFP0aljgEVuPa6j+YRGUica6U9vdhUKk4LWzG3X0cOPdcOIilTclrgShpDOiLaGVmSsQOiFJZlQKksRFiR8TSXIMoQN+qzOU175F9dNX3/obOnSP9CUoeLktIFL8KJ4flcLZN8NhtRJiDwxsf7VwhQHjAhniCDvNONhi04UbqakSuOBQCWy6cK16MWk0rRB2U/XRKVgMlSRwl+1nyhWI+s0+Xs4KYgNvPtlBKuJvVniX4En+9yfxWVpDx2yc2+Bosl0o5fw77U0PakjMzOz4B);strokeColor=#ff5958;spacingTop=-3;spacingBottom=-3;spacingLeft=-3;spacingRight=-3;points=[];labelBackgroundColor=none;rounded=0;html=1;whiteSpace=wrap;" parent="EFlYSVGT6i4VKlR51mrI-9" vertex="1">
          <mxGeometry x="173" y="13.75" width="142" height="104" as="geometry" />
        </mxCell>
        <mxCell id="EFlYSVGT6i4VKlR51mrI-27" value="" style="shape=image;verticalLabelPosition=bottom;verticalAlign=top;imageAspect=0;aspect=fixed;image=data:image/svg+xml,PHN2ZyB4bWxucz0iaHR0cDovL3d3dy53My5vcmcvMjAwMC9zdmciIHdpZHRoPSIzMiIgaGVpZ2h0PSIzMiIgdmlld0JveD0iMCAwIDMyIDMyIiBmaWxsPSJub25lIj4mI3hhOzxwYXRoIGQ9Ik0wIDE2QzAgNy4xNjM0NCA3LjE2MzQ0IDAgMTYgMFYwQzI0LjgzNjYgMCAzMiA3LjE2MzQ0IDMyIDE2VjE2QzMyIDI0LjgzNjYgMjQuODM2NiAzMiAxNiAzMlYzMkM3LjE2MzQ0IDMyIDAgMjQuODM2NiAwIDE2VjE2WiIgZmlsbD0iIzUyODJGRiIvPiYjeGE7PHBhdGggZD0iTTI0IDE1VjEzSDIyVjExQzIyIDEwLjQgMjEuNiAxMCAyMSAxMEgxOVY4SDE3VjEwSDE1VjhIMTNWMTBIMTFDMTAuNCAxMCAxMCAxMC40IDEwIDExVjEzSDhWMTVIMTBWMTdIOFYxOUgxMFYyMUMxMCAyMS42IDEwLjQgMjIgMTEgMjJIMTNWMjRIMTVWMjJIMTdWMjRIMTlWMjJIMjFDMjEuNiAyMiAyMiAyMS42IDIyIDIxVjE5SDI0VjE3SDIyVjE1SDI0Wk0xOSAxOUgxM1YxM0gxOVYxOVoiIGZpbGw9IndoaXRlIi8+JiN4YTs8L3N2Zz4=;" parent="EFlYSVGT6i4VKlR51mrI-9" vertex="1">
          <mxGeometry x="33" y="85.75" width="32" height="32" as="geometry" />
        </mxCell>
        <mxCell id="EFlYSVGT6i4VKlR51mrI-29" value="" style="shape=image;verticalLabelPosition=bottom;verticalAlign=top;imageAspect=0;aspect=fixed;image=data:image/svg+xml,PHN2ZyB4bWxucz0iaHR0cDovL3d3dy53My5vcmcvMjAwMC9zdmciIHdpZHRoPSIzMiIgaGVpZ2h0PSIzMiIgdmlld0JveD0iMCAwIDMyIDMyIiBmaWxsPSJub25lIj4mI3hhOzxwYXRoIGQ9Ik0wIDE2QzAgNy4xNjM0NCA3LjE2MzQ0IDAgMTYgMFYwQzI0LjgzNjYgMCAzMiA3LjE2MzQ0IDMyIDE2VjE2QzMyIDI0LjgzNjYgMjQuODM2NiAzMiAxNiAzMlYzMkM3LjE2MzQ0IDMyIDAgMjQuODM2NiAwIDE2VjE2WiIgZmlsbD0iIzUyODJGRiIvPiYjeGE7PHBhdGggZmlsbC1ydWxlPSJldmVub2RkIiBjbGlwLXJ1bGU9ImV2ZW5vZGQiIGQ9Ik0xMyA4SDE4QzIxLjMgOCAyNCAxMC43IDI0IDE0VjI0SDIwVjIwSDIyVjE5SDE4LjZDMTUuNSAxOSAxMyAxNi41IDEzIDEzLjRWOFpNMTkgMTdIMjFWMTVIMTlWMTdaTTEyIDkuMDk5OThWMTMuNEMxMiAxNi44IDE0LjYgMTkuNyAxOCAyMC4xVjIwLjZDMTggMjIgMTUuOCAyMy4xIDEzIDIzLjFDMTAuMiAyMy4xIDggMjIgOCAyMC42VjExLjZDOCAxMC4zIDkuNyA5LjI5OTk4IDEyIDkuMDk5OThaIiBmaWxsPSJ3aGl0ZSIvPiYjeGE7PC9zdmc+;" parent="EFlYSVGT6i4VKlR51mrI-9" vertex="1">
          <mxGeometry x="228" y="18.139999999999986" width="32" height="32" as="geometry" />
        </mxCell>
        <mxCell id="EFlYSVGT6i4VKlR51mrI-32" value="&lt;span style=&quot;font-size: 23px;&quot;&gt;VM 1&lt;/span&gt;" style="text;strokeColor=none;align=left;fillColor=none;html=1;verticalAlign=middle;whiteSpace=wrap;rounded=0;" parent="EFlYSVGT6i4VKlR51mrI-9" vertex="1">
          <mxGeometry x="23" y="13" width="57" height="33.89" as="geometry" />
        </mxCell>
        <mxCell id="EFlYSVGT6i4VKlR51mrI-34" value="&lt;span style=&quot;font-size: 25px;&quot;&gt;PostgreSQL&lt;br&gt;(master)&lt;/span&gt;" style="text;strokeColor=none;align=center;fillColor=none;html=1;verticalAlign=middle;whiteSpace=wrap;rounded=0;" parent="EFlYSVGT6i4VKlR51mrI-9" vertex="1">
          <mxGeometry x="177" y="58.139999999999986" width="134" height="50" as="geometry" />
        </mxCell>
        <mxCell id="EFlYSVGT6i4VKlR51mrI-28" value="&lt;font style=&quot;font-size: 23px;&quot;&gt;Зона доступности 1&lt;/font&gt;" style="text;strokeColor=none;align=center;fillColor=none;html=1;verticalAlign=middle;whiteSpace=wrap;rounded=0;" parent="1" vertex="1">
          <mxGeometry x="-134.5" y="896" width="260" height="30" as="geometry" />
        </mxCell>
        <mxCell id="ah_XLq43YyYrRaYLE0jE-1" value="" style="endArrow=classic;html=1;rounded=0;exitX=0.5;exitY=1.002;exitDx=0;exitDy=0;exitPerimeter=0;entryX=0.5;entryY=0.001;entryDx=0;entryDy=0;entryPerimeter=0;" parent="1" source="Zcm5tQwCMB2YyKj0-IPv-39" target="z50hnRKx-UgiLCB_eJ8v-7" edge="1">
          <mxGeometry width="50" height="50" relative="1" as="geometry">
            <mxPoint x="590" y="270" as="sourcePoint" />
            <mxPoint x="640" y="220" as="targetPoint" />
          </mxGeometry>
        </mxCell>
        <mxCell id="ah_XLq43YyYrRaYLE0jE-2" style="vsdxID=5;fillColor=none;gradientColor=none;shape=stencil(vVPLEoIgFP0aljgEVuPa6j+YRGUica6U9vdhUKk4LWzG3X0cOPdcOIilTclrgShpDOiLaGVmSsQOiFJZlQKksRFiR8TSXIMoQN+qzOU175F9dNX3/obOnSP9CUoeLktIFL8KJ4flcLZN8NhtRJiDwxsf7VwhQHjAhniCDvNONhi04UbqakSuOBQCWy6cK16MWk0rRB2U/XRKVgMlSRwl+1nyhWI+s0+Xs4KYgNvPtlBKuJvVniX4En+9yfxWVpDx2yc2+Bosl0o5fw77U0PakjMzOz4B);strokeColor=#ff5958;spacingTop=-3;spacingBottom=-3;spacingLeft=-3;spacingRight=-3;points=[];labelBackgroundColor=none;rounded=0;html=1;whiteSpace=wrap;" parent="1" vertex="1">
          <mxGeometry x="400" y="671.86" width="320" height="104" as="geometry" />
        </mxCell>
        <mxCell id="ah_XLq43YyYrRaYLE0jE-3" value="&lt;div style=&quot;font-size: 1px&quot;&gt;&lt;font style=&quot;font-size: 22.58px; font-family: Arial; color: rgb(0, 0, 0); direction: ltr; letter-spacing: 0px; line-height: 120%; opacity: 1;&quot;&gt;HAP Proxy&lt;br&gt;&lt;/font&gt;&lt;/div&gt;" style="verticalAlign=bottom;align=center;overflow=width;vsdxID=6;fillColor=none;gradientColor=none;strokeColor=none;spacingTop=-3;spacingBottom=-3;spacingLeft=-3;spacingRight=-3;points=[];labelBackgroundColor=none;rounded=0;html=1;whiteSpace=wrap;" parent="1" vertex="1">
          <mxGeometry x="434" y="712.11" width="252" height="28" as="geometry" />
        </mxCell>
        <mxCell id="ah_XLq43YyYrRaYLE0jE-9" value="" style="endArrow=classic;html=1;rounded=0;exitX=-0.001;exitY=0.465;exitDx=0;exitDy=0;exitPerimeter=0;entryX=1;entryY=0.408;entryDx=0;entryDy=0;entryPerimeter=0;" parent="1" source="ah_XLq43YyYrRaYLE0jE-2" target="EFlYSVGT6i4VKlR51mrI-10" edge="1">
          <mxGeometry width="50" height="50" relative="1" as="geometry">
            <mxPoint x="570" y="760" as="sourcePoint" />
            <mxPoint x="170" y="770" as="targetPoint" />
            <Array as="points">
              <mxPoint x="280" y="720" />
              <mxPoint x="280" y="770" />
            </Array>
          </mxGeometry>
        </mxCell>
        <mxCell id="ah_XLq43YyYrRaYLE0jE-10" value="" style="endArrow=classic;html=1;rounded=0;exitX=1.002;exitY=0.459;exitDx=0;exitDy=0;exitPerimeter=0;entryX=-0.001;entryY=0.322;entryDx=0;entryDy=0;entryPerimeter=0;" parent="1" source="ah_XLq43YyYrRaYLE0jE-2" target="EFlYSVGT6i4VKlR51mrI-102" edge="1">
          <mxGeometry width="50" height="50" relative="1" as="geometry">
            <mxPoint x="709" y="813.61" as="sourcePoint" />
            <mxPoint x="950" y="760" as="targetPoint" />
            <Array as="points">
              <mxPoint x="840" y="720" />
              <mxPoint x="840" y="760" />
            </Array>
          </mxGeometry>
        </mxCell>
        <mxCell id="sHwqf9DULqVxbcHjMFuy-2" value="" style="endArrow=classic;html=1;rounded=0;exitX=0.999;exitY=0.632;exitDx=0;exitDy=0;exitPerimeter=0;entryX=0;entryY=0.629;entryDx=0;entryDy=0;entryPerimeter=0;strokeColor=default;curved=1;" parent="1" source="EFlYSVGT6i4VKlR51mrI-10" target="EFlYSVGT6i4VKlR51mrI-102" edge="1">
          <mxGeometry relative="1" as="geometry">
            <mxPoint x="180" y="800" as="sourcePoint" />
            <mxPoint x="950" y="800" as="targetPoint" />
            <Array as="points">
              <mxPoint x="563" y="875" />
            </Array>
          </mxGeometry>
        </mxCell>
        <mxCell id="sHwqf9DULqVxbcHjMFuy-3" value="&lt;font style=&quot;font-size: 18px;&quot;&gt;Replica synchronization&lt;/font&gt;" style="edgeLabel;resizable=0;html=1;;align=center;verticalAlign=middle;" parent="sHwqf9DULqVxbcHjMFuy-2" connectable="0" vertex="1">
          <mxGeometry relative="1" as="geometry">
            <mxPoint x="6" y="-35" as="offset" />
          </mxGeometry>
        </mxCell>
        <mxCell id="EFlYSVGT6i4VKlR51mrI-109" style="edgeStyle=orthogonalEdgeStyle;rounded=0;orthogonalLoop=1;jettySize=auto;html=1;exitX=0;exitY=0.476;exitDx=0;exitDy=0;exitPerimeter=0;entryX=0.486;entryY=-0.002;entryDx=0;entryDy=0;entryPerimeter=0;" parent="1" source="z50hnRKx-UgiLCB_eJ8v-7" edge="1">
          <mxGeometry relative="1" as="geometry">
            <Array as="points">
              <mxPoint y="221" />
            </Array>
            <mxPoint x="-480" y="221" as="sourcePoint" />
            <mxPoint y="500" as="targetPoint" />
          </mxGeometry>
        </mxCell>
      </root>
    </mxGraphModel>
  </diagram>
</mxfile>
